Coordinates
version=1
nRows=10
nColumns=40
inDegrees=yes

Units are S.I. units (second, meters, Newtons, ...)
Angles are in degrees.

endheader
time	pelvis_tilt	pelvis_list	pelvis_rotation	pelvis_tx	pelvis_ty	pelvis_tz	hip_flexion_r	hip_adduction_r	hip_rotation_r	knee_angle_r	knee_angle_r_beta	ankle_angle_r	subtalar_angle_r	mtp_angle_r	hip_flexion_l	hip_adduction_l	hip_rotation_l	knee_angle_l	knee_angle_l_beta	ankle_angle_l	subtalar_angle_l	mtp_angle_l	lumbar_extension	lumbar_bending	lumbar_rotation	arm_flex_r	arm_add_r	arm_rot_r	elbow_flex_r	pro_sup_r	wrist_flex_r	wrist_dev_r	arm_flex_l	arm_add_l	arm_rot_l	elbow_flex_l	pro_sup_l	wrist_flex_l	wrist_dev_l
     18.25000000	     -0.48851644	     -6.14303163	      2.31143919	      1.13718939	      0.93407175	      0.46792275	      9.42328029	      4.63544816	    -18.42760016	     16.43082314	     16.43082314	     10.45017258	      3.63791378	     -3.78891254	     25.23685964	    -14.66584121	     -2.51951221	     68.29771989	     68.29771989	      9.96858305	    -18.62301269	     12.71051720	     -9.00568456	      8.67130294	      4.78778547	     14.93374067	    -15.42028068	     -7.79242740	     26.49802197	     46.47028174	      0.00000000	      0.00000000	      8.48348648	     -8.51973396	     -0.88839237	     56.70152011	     46.40542225	      0.00000000	      0.00000000
     18.26157143	     -0.62872122	     -6.08244961	      2.46954618	      1.13549159	      0.93490826	      0.46838760	      8.41754596	      4.84426749	    -18.36838315	     15.27439144	     15.27439144	     10.54138139	      3.85225803	     -3.70977227	     26.87739145	    -14.35743389	     -2.25348829	     66.57233196	     66.57233196	     10.08267402	    -18.52214761	     12.57463746	     -8.96568823	      8.53674970	      4.46973700	     17.72003318	    -15.40072775	     -7.78145718	     27.35398564	     46.45942218	      0.00000000	      0.00000000	      6.73545726	     -8.48297640	     -0.48878076	     54.24157296	     46.33575697	      0.00000000	      0.00000000
     18.27314286	     -0.78207401	     -6.01448290	      2.62829585	      1.13381625	      0.93561502	      0.46873727	      7.43167058	      4.99549238	    -18.54209338	     14.12916377	     14.12916377	     10.49924825	      4.43375357	     -4.07049993	     28.30579783	    -14.03542078	     -2.06510080	     64.50315777	     64.50315777	      9.91165145	    -18.41603265	     11.97475311	     -8.84899473	      8.44243715	      4.68804518	     20.40529231	    -15.67988189	     -7.38693603	     27.35150597	     46.45622041	      0.00000000	      0.00000000	      6.23490439	     -7.95636004	      0.05258369	     49.14607994	     46.25470715	      0.00000000	      0.00000000
     18.28471429	     -0.88287225	     -6.01253336	      2.78124393	      1.13223413	      0.93617603	      0.46909559	      6.37587310	      5.25509771	    -18.61410293	     12.93607112	     12.93607112	     10.55530478	      4.88865938	     -4.09531120	     29.52397955	    -13.75747920	     -1.86640805	     62.19871787	     62.19871787	      9.81849053	    -18.32824264	     12.06079687	     -8.87365323	      8.40437475	      4.45362622	     22.98685476	    -15.70242202	     -7.20810360	     28.52110023	     46.41499032	      0.00000000	      0.00000000	      4.92226105	     -7.79622238	      0.54147252	     45.97472934	     46.17552427	      0.00000000	      0.00000000
     18.29628571	     -1.01145798	     -5.93983345	      2.91993276	      1.13070586	      0.93648269	      0.46938467	      5.40248407	      5.41018675	    -18.67409776	     11.83388406	     11.83388406	     10.49326148	      5.33532609	     -4.48073740	     30.56573984	    -13.38590451	     -1.73004648	     59.58752885	     59.58752885	      9.65817392	    -18.29293026	     12.15785490	     -8.79591928	      8.28491544	      4.89594466	     25.09281440	    -16.16968966	     -6.57319587	     29.36369819	     46.34915962	      0.00000000	      0.00000000	      4.81995894	     -7.25408626	      1.21855021	     40.65828899	     46.08026230	      0.00000000	      0.00000000
     18.30785714	     -1.10758575	     -5.93976630	      3.05351417	      1.12924385	      0.93653988	      0.46963612	      4.41155527	      5.65833802	    -18.65118359	     10.75585920	     10.75585920	     10.58225313	      5.65813848	     -4.45596618	     31.44589356	    -13.08081405	     -1.58498760	     56.74776053	     56.74776053	      9.54499038	    -18.25664192	     12.57967568	     -8.83926233	      8.22248186	      4.67055957	     27.43714017	    -16.14679920	     -6.44218927	     30.76236637	     46.29930806	      0.00000000	      0.00000000	      3.37728890	     -7.18592595	      1.57099732	     38.38727011	     46.01085699	      0.00000000	      0.00000000
     18.31942857	     -1.21882984	     -5.93897979	      3.16979785	      1.12780178	      0.93634251	      0.46984586	      3.46657481	      5.89015723	    -18.60751074	      9.73014983	      9.73014983	     10.67313805	      5.98978075	     -4.52908983	     32.18567009	    -12.79466822	     -1.52717923	     53.62225735	     53.62225735	      9.38823748	    -18.16314409	     13.04450125	     -8.85472176	      8.13444755	      4.55390440	     29.63194686	    -16.14409993	     -6.23439475	     32.09438924	     46.24605680	      0.00000000	      0.00000000	      2.19842817	     -7.06587130	      1.95839364	     35.78663541	     45.93802510	      0.00000000	      0.00000000
     18.33100000	     -1.51576907	     -6.11885066	      3.19673429	      1.12622557	      0.93539470	      0.47009243	      3.08027730	      6.18947712	    -18.54456961	      9.38588783	      9.38588783	     10.97054940	      6.07287705	     -4.67842840	     33.09268226	    -12.75550740	     -1.51088394	     50.41033270	     50.41033270	      9.36288274	    -17.70288775	     13.43712724	     -8.63704953	      8.28504195	      5.14670511	     31.59481224	    -16.81311950	     -6.26049016	     33.00198259	     46.22665880	      0.00000000	      0.00000000	      0.84200622	     -6.83720922	      2.10962470	     34.69323376	     45.89604470	      0.00000000	      0.00000000
     18.34257143	     -1.54069579	     -6.14966354	      3.35218686	      1.12493616	      0.93483291	      0.46999096	      1.82594296	      6.51794536	    -18.50875806	      7.89913972	      7.89913972	     10.66848402	      6.48906703	     -5.62144781	     33.43036754	    -12.38465916	     -1.37284592	     46.74682972	     46.74682972	      8.83216854	    -17.78596701	     13.04527498	     -8.75590619	      8.24309998	      5.15480967	     33.02055109	    -17.10463652	     -4.83875491	     35.91401670	     46.02194467	      0.00000000	      0.00000000	      1.48609055	     -6.35739856	      3.27411214	     27.41088543	     45.73762829	      0.00000000	      0.00000000
     18.35414286	     -1.72233076	     -6.24457930	      3.42208311	      1.12355424	      0.93371928	      0.46992114	      1.14987209	      6.76801309	    -18.38192663	      7.25762847	      7.25762847	     10.92977075	      6.63402833	     -5.78304728	     33.86359005	    -12.11696275	     -1.28297026	     43.02645821	     43.02645821	      8.70836685	    -17.37593859	     13.36286928	     -8.73498073	      8.25932663	      4.94078029	     34.99433127	    -17.02939706	     -4.71447423	     37.68067147	     45.95668843	      0.00000000	      0.00000000	     -0.04139646	     -6.36544584	      3.44727878	     26.13190620	     45.68274804	      0.00000000	      0.00000000
